<svg id="SvgjsSvg1001" width="288" height="288" xmlns="http://www.w3.org/2000/svg" version="1.1" xmlns:xlink="http://www.w3.org/1999/xlink" xmlns:svgjs="http://svgjs.com/svgjs"><defs id="SvgjsDefs1002"></defs><g id="SvgjsG1008"><svg xmlns="http://www.w3.org/2000/svg" viewBox="0 0 3386.8 2000" width="288" height="288"><path fill="#ffffff" d="M705.65 1049.53l-14.88 34.57H646.35L722.45 924h39.38l75.86 160.12h-44.9l-16.08-34.57zm44.17-57.37c-4.56-9.85-6.72-14.89-9.84-22.33-3.12 7.68-3.84 9.6-9.36 22.81l-10.57 24.48h41.78zM886.9 924v53c11.76-10.56 24.72-15.36 40.57-15.36 36.25 0 63.38 27.12 63.38 63.37 0 36-27.13 63.14-63.38 63.14-15.85 0-28.57-4.8-40.57-15.36v11.28H849V924zM884 1024.32c0 20.65 15.12 36.73 34.33 36.73 19.44 0 34.8-15.84 34.8-36.25 0-19.92-15.36-36-34.57-36C899.62 988.79 884 1004.88 884 1024.32zM1138 979.67c13 11.53 19.45 26.65 19.45 46.34 0 37.21-31.21 62.89-76.34 62.89-45.85 0-76.34-25.44-76.34-64.1 0-38.41 30.49-63.85 76.82-63.85C1104.15 961 1124.08 967.67 1138 979.67zm-92.42 45.13c0 21.13 14.64 36 35.53 36 20.4 0 35.53-14.89 35.53-35.29 0-21.61-14.41-36.5-35.29-36.5C1060.22 989 1045.58 1003.68 1045.58 1024.8zM1213.87 1084.1l-57.14-118.35h42l21.85 48c5.76 12.48 7.68 17.77 12 31a211.48 211.48 0 0111.05-29.29l23-49.69H1307l-58.33 118.35zM1344.7 1032.49c.24 18.48 13.45 30 33.85 30 14.65 0 23.77-5 28.33-15.84h42c-3.84 10.8-8.88 17.77-18.48 25.69-13.69 11.28-29.77 16.56-50.66 16.56-25 0-44.65-6.72-56.89-19.2-10.8-11-16.57-26.41-16.57-43.93 0-39.62 27.85-64.82 72-64.82 29.77 0 52.1 11 62.9 31.45 6.24 11.52 8.64 22.8 9.12 40.09zm65.06-23.53c-3.84-16.32-14.4-24.49-31.93-24.49s-28.33 8.17-31.93 24.49zM1654.63 1023.36c3.12-3.36 4.8-7.68 5.52-13.92h40.09c-2.4 13.2-9.36 27.37-19.69 39.37L1717 1084.1h-50.89l-11.52-11.52c-15.85 11.52-32.65 16.32-55.94 16.32-22.32 0-40.81-5.52-53-16.08-11.53-9.6-17.53-21.61-17.53-34.57 0-19.45 13.69-36 41.29-49.93-11.76-12-17-22.09-17-33.13 0-20.65 21.84-36 51.13-36 28.81 0 49 14.64 49 35.53 0 14.88-8.41 26.88-27.85 39.61zm-61.94-12c-16.8 8.88-23.53 15.61-23.53 23.77 0 13.2 13.45 23 31.93 23 11.05 0 18.49-2.4 29.53-9.12zm24.49-54.25c0-6.25-5.29-10.57-13.21-10.57s-13.68 4.32-13.68 10.33c0 3.84 1.44 5.76 11.52 15.12C1613.09 966 1617.18 961.91 1617.18 957.11zM1788.34 924h95.31c27.37 0 32.65.48 42 4.32 13 5 21.61 19.44 21.61 35.77 0 14.64-6.48 25.45-20.65 34.33 18.49 7.92 28.09 21.84 28.09 40.09 0 17.28-9.6 32.89-24.25 39.37-11 5-20.64 6.24-45.61 6.24h-96.51zm94.35 63.37c15.36 0 21.37-4.32 21.37-15.84s-6-15.84-21.37-15.84h-54.26v31.68zm0 65.06c11.28 0 15.6-.72 20.16-2.88 5.29-2.4 8.65-8.4 8.65-15.6 0-7-3.36-13-8.65-15.37-4.56-2.4-8.88-2.88-20.16-2.88h-54.26v36.73zM2007.52 1032.49c.24 18.48 13.45 30 33.85 30 14.65 0 23.77-5 28.33-15.84h42c-3.84 10.8-8.88 17.77-18.48 25.69-13.69 11.28-29.77 16.56-50.66 16.56-25 0-44.65-6.72-56.89-19.2-10.81-11-16.57-26.41-16.57-43.93 0-39.62 27.85-64.82 72-64.82 29.77 0 52.1 11 62.9 31.45 6.24 11.52 8.64 22.8 9.12 40.09zm65.06-23.53c-3.84-16.32-14.4-24.49-31.93-24.49s-28.33 8.17-31.93 24.49zM2261.75 965.75L2208 1079.06c-20.89 45.61-22.81 47.29-56.42 48.25H2130V1094.9H2152c9.12 0 14.17-3.6 14.17-10.32 0-3.12-.72-5.52-2.89-9.84l-51.85-109H2154l22.09 51.85c5.52 12.73 6.24 14.65 11.52 30.73 4.32-12.48 8.88-24.49 11.53-30.73l21.36-51.85zM2393.79 979.67c13 11.53 19.44 26.65 19.44 46.34 0 37.21-31.2 62.89-76.34 62.89-45.85 0-76.34-25.44-76.34-64.1 0-38.41 30.49-63.85 76.82-63.85C2359.94 961 2379.87 967.67 2393.79 979.67zm-92.43 45.13c0 21.13 14.65 36 35.53 36 20.41 0 35.53-14.89 35.53-35.29 0-21.61-14.4-36.5-35.29-36.5C2316 989 2301.36 1003.68 2301.36 1024.8zM2432.92 965.75h37.93v14.4c16.33-13.44 28.81-18.48 46.09-18.48 16.33 0 31.45 5.76 40.82 15.84 9.12 9.6 12 19.69 12 41.29v65.3h-37.93v-62.66c0-12-2.4-19-8.4-24.24-5.29-4.56-12.73-7.21-20.89-7.21-19.68 0-31.69 12.25-31.69 32.41v61.7h-37.93zM2731.32 1084.1h-37.93v-11.28c-12 10.56-24.72 15.36-40.57 15.36-36.25 0-63.38-27.13-63.38-63.14 0-36.25 27.13-63.37 63.38-63.37 15.85 0 28.81 4.8 40.57 15.36V924h37.93zm-104.18-59.3c0 20.17 15.36 36.25 34.57 36.25 19 0 34.56-16.08 34.56-35.52 0-20.65-15.12-36.74-34.32-36.74C2642.5 988.79 2627.14 1004.64 2627.14 1024.8z" class="color1d1d1b svgShape"></path><path fill="#e3536f" d="M2272.45 1135c-1.16-3.88-2.52-5.83-5.44-7.38s-6.6-2.23-11.36-2.23c-9.61 0-15.34 2.91-15.34 7.77 0 3.69 2.53 5.34 9.42 6l15.73 1.65c8.35.77 12.82 1.84 17.19 4.08a17.32 17.32 0 019.61 15.73c0 7.57-4.46 14.37-11.75 17.86-6.21 3-13.5 4.28-24 4.28-13.21 0-22.53-2.53-28.46-7.67-4.56-3.89-6.21-8.16-6.79-16.71h17c.49 4.28 1.65 6.51 4.27 8.55 3.6 2.72 8.06 3.88 14.76 3.88 10.59 0 16.71-3.1 16.71-8.45 0-4.27-3.21-6.4-10.78-7.18l-18.26-1.85c-14.18-1.45-21.85-7.86-21.85-18.16 0-13.49 12.43-21.75 32.63-21.75 10.2 0 19.42 2.33 25.25 6.31 5.05 3.5 7.28 7.58 8.54 15.25zM2352.37 1138.19c5.24 4.67 7.87 10.78 7.87 18.75 0 15-12.63 25.44-30.89 25.44-18.54 0-30.87-10.3-30.87-25.93s12.33-25.83 31.07-25.83C2338.68 1130.62 2346.74 1133.34 2352.37 1138.19zM2315 1156.45c0 8.55 5.93 14.57 14.37 14.57 8.26 0 14.38-6 14.38-14.28 0-8.74-5.83-14.76-14.28-14.76S2315 1147.9 2315 1156.45zM2383.54 1180.44H2368.2v-64.77h15.34zM2449.18 1180.44h-15.34v-5.83c-6.6 5.44-11.65 7.48-18.64 7.48-6.61 0-12.72-2.33-16.51-6.41-3.69-3.89-4.86-8-4.86-16.7v-26.42h15.35v25.35c0 4.85 1 7.67 3.4 9.81a12.9 12.9 0 008.44 2.91c8 0 12.82-5 12.82-13.11v-25h15.34zM2477 1132.56h11.26v11H2477v20c0 4.18 1.45 5.34 6.5 5.24h4.37v11.66h-9.51c-13.79 0-16.9-3.21-16.71-17.09v-19.81h-6.89v-11h6.89V1119H2477zM2495.21 1115.67h15.35v12.81h-15.35zm0 16.89h15.35v47.88h-15.35zM2572.41 1138.19c5.25 4.67 7.87 10.78 7.87 18.75 0 15-12.63 25.44-30.88 25.44-18.55 0-30.88-10.3-30.88-25.93s12.33-25.83 31.07-25.83C2558.72 1130.62 2566.78 1133.34 2572.41 1138.19zM2535 1156.45c0 8.55 5.92 14.57 14.37 14.57a13.91 13.91 0 0014.37-14.28c0-8.74-5.83-14.76-14.28-14.76S2535 1147.9 2535 1156.45zM2588.24 1132.56h15.34v5.83c6.61-5.44 11.66-7.48 18.65-7.48 6.6 0 12.72 2.33 16.51 6.41 3.69 3.88 4.85 8 4.85 16.7v26.42h-15.34v-25.35c0-4.85-1-7.67-3.4-9.81a13 13 0 00-8.45-2.91c-8 0-12.82 5-12.82 13.11v25h-15.34zM2690.1 1146.74c-.38-4.76-3.49-6.6-11.26-6.6-7.38 0-11 1.65-11 5 0 2.62 1.94 3.69 7.38 4 9.32.58 15.44 1.16 19 2 8.64 2 12.92 6.5 12.92 13.59 0 11.27-9.91 17.58-27.58 17.58-18.16 0-28.16-5.83-29.14-17h16.12c.49 5.15 4.47 7.48 12.63 7.48 7.77 0 12.43-2 12.43-5.44 0-3.1-2.53-4.07-11.75-4.75-10.59-.68-12.92-1-17.19-2.24-6.7-1.84-10.39-6.5-10.39-12.91 0-10.68 9.71-16.9 26.51-16.9 10.49 0 18 2.33 22.82 7 2.33 2.33 3.5 5 4.08 9.13zM2731.86 1165.38v15.06h-16.7v-15.06z" class="colore3536f svgShape"></path></svg></g></svg>