<svg id="svg" version="1.1" xmlns="http://www.w3.org/2000/svg" xmlns:xlink="http://www.w3.org/1999/xlink" width="400" height="236.24557260920898" viewBox="0, 0, 400,236.24557260920898"><g id="svgg"><path id="path0" d="M152.739 43.153 C 151.016 43.436,149.309 44.763,148.466 46.473 L 148.083 47.250 148.041 93.292 L 147.998 139.333 197.469 139.333 C 242.127 139.333,247.026 139.308,247.829 139.069 C 250.048 138.410,251.592 136.701,252.009 134.441 C 252.108 133.909,252.152 116.408,252.126 88.333 L 252.083 43.083 202.750 43.062 C 175.617 43.051,153.112 43.092,152.739 43.153 M195.149 67.210 C 195.460 67.782,196.216 69.112,196.829 70.167 C 197.441 71.221,198.830 73.621,199.914 75.500 C 207.256 88.219,211.592 95.476,212.195 96.052 C 215.005 98.737,219.719 96.981,220.116 93.102 C 220.275 91.547,220.574 92.128,213.335 79.919 C 212.303 78.178,211.427 76.671,211.388 76.570 C 211.281 76.290,214.562 76.154,216.980 76.338 C 226.131 77.035,232.737 84.209,232.708 93.417 C 232.662 108.193,215.071 115.765,204.381 105.611 C 202.143 103.485,201.198 102.086,196.002 93.201 L 193.439 88.818 192.982 89.284 C 192.524 89.752,191.289 91.832,185.337 102.167 C 183.568 105.237,181.972 107.999,181.789 108.304 C 181.607 108.608,181.275 108.927,181.051 109.012 C 180.547 109.204,167.333 109.220,167.333 109.028 C 167.333 108.952,169.369 105.334,171.857 100.987 C 174.345 96.640,176.530 92.821,176.711 92.500 C 177.572 90.978,185.415 77.443,185.843 76.742 L 186.153 76.233 185.070 74.336 C 184.475 73.293,184.019 72.359,184.057 72.261 C 184.095 72.163,185.392 71.358,186.938 70.472 C 188.485 69.586,190.800 68.256,192.083 67.516 C 194.864 65.914,194.465 65.954,195.149 67.210 M187.557 159.662 C 183.504 160.529,182.218 163.816,184.731 166.882 L 185.347 167.634 184.414 168.168 C 178.816 171.371,179.447 177.245,185.588 179.104 C 188.075 179.857,192.000 179.458,194.384 178.210 L 195.518 177.616 196.141 178.225 L 196.764 178.833 199.689 178.833 L 202.613 178.833 200.565 176.809 L 198.518 174.784 198.987 174.101 C 199.666 173.110,200.289 171.867,200.564 170.954 L 200.803 170.158 198.458 170.204 L 196.113 170.250 195.931 170.784 C 195.554 171.897,195.457 171.867,193.663 170.080 C 192.748 169.168,192.018 168.372,192.041 168.312 C 192.064 168.252,192.472 167.897,192.947 167.524 C 197.676 163.802,193.907 158.305,187.557 159.662 M83.749 163.458 C 82.846 165.360,81.483 168.217,80.720 169.806 C 79.957 171.395,79.333 172.716,79.333 172.740 C 79.333 172.765,78.696 174.104,77.917 175.716 C 77.137 177.328,76.500 178.689,76.500 178.740 C 76.500 178.791,77.654 178.833,79.064 178.833 L 81.627 178.833 82.469 176.875 L 83.310 174.917 87.541 174.872 L 91.772 174.828 92.708 176.831 L 93.644 178.833 96.239 178.833 C 97.666 178.833,98.833 178.803,98.833 178.765 C 98.833 178.728,98.264 177.509,97.568 176.057 C 96.872 174.605,96.112 173.004,95.879 172.500 C 95.647 171.996,94.937 170.496,94.302 169.167 C 93.668 167.837,92.427 165.231,91.546 163.375 L 89.943 160.000 87.667 160.000 L 85.390 160.000 83.749 163.458 M100.333 169.417 L 100.333 178.833 102.500 178.833 L 104.667 178.833 104.667 178.250 C 104.667 177.540,104.611 177.540,105.663 178.247 C 109.977 181.150,116.044 178.366,116.862 173.108 C 117.835 166.844,110.950 162.265,105.679 165.672 L 104.667 166.326 104.667 163.163 L 104.667 160.000 102.500 160.000 L 100.333 160.000 100.333 169.417 M211.291 160.098 C 211.223 160.166,211.167 164.410,211.167 169.528 L 211.167 178.833 218.542 178.831 C 226.212 178.829,226.740 178.789,228.214 178.089 C 231.687 176.441,231.727 170.922,228.279 169.143 L 227.642 168.814 228.411 168.137 C 230.975 165.880,230.312 161.710,227.193 160.471 C 226.227 160.087,211.644 159.745,211.291 160.098 M318.167 163.083 C 318.167 164.798,318.100 166.167,318.017 166.167 C 317.934 166.167,317.484 165.909,317.017 165.595 C 311.992 162.214,305.087 166.881,305.956 173.072 C 306.704 178.400,313.246 181.276,317.403 178.105 C 318.137 177.545,318.167 177.551,318.167 178.250 L 318.167 178.833 320.333 178.833 L 322.500 178.833 322.500 169.417 L 322.500 160.000 320.333 160.000 L 318.167 160.000 318.167 163.083 M190.561 163.012 C 191.409 163.679,190.992 164.749,189.593 165.495 C 189.033 165.794,187.833 164.718,187.833 163.915 C 187.833 162.831,189.591 162.249,190.561 163.012 M224.188 164.122 C 225.175 164.706,225.226 166.358,224.279 167.066 C 223.838 167.396,223.572 167.420,219.822 167.467 L 215.833 167.517 215.833 165.675 L 215.833 163.833 219.766 163.833 C 223.198 163.833,223.761 163.870,224.188 164.122 M124.667 164.812 C 116.775 166.870,116.688 177.114,124.545 179.104 C 131.029 180.747,136.597 177.459,136.576 172.000 C 136.554 166.459,131.061 163.144,124.667 164.812 M160.045 164.739 C 152.660 166.529,152.209 176.795,159.417 179.045 C 163.699 180.381,169.035 178.699,170.668 175.497 C 171.185 174.483,171.220 174.500,168.600 174.500 L 166.200 174.500 165.862 175.073 C 164.351 177.633,158.833 176.274,158.833 173.342 L 158.833 172.837 165.038 172.794 L 171.244 172.750 171.191 172.000 C 170.798 166.384,166.043 163.286,160.045 164.739 M238.083 164.815 C 233.094 166.270,230.970 171.884,233.752 176.260 C 236.227 180.152,243.751 180.647,247.552 177.167 C 248.339 176.448,249.333 175.008,249.333 174.589 C 249.333 174.540,248.258 174.500,246.945 174.500 L 244.556 174.500 244.040 175.142 C 242.028 177.646,237.000 176.155,237.000 173.054 C 237.000 172.875,238.180 172.833,243.250 172.833 L 249.500 172.833 249.498 172.125 C 249.478 166.612,243.986 163.094,238.083 164.815 M273.106 164.764 C 268.589 165.858,266.152 169.675,267.259 173.923 C 269.310 181.800,283.640 181.168,284.882 173.147 C 285.787 167.297,279.914 163.116,273.106 164.764 M295.567 164.748 C 294.473 164.986,293.267 165.544,292.333 166.245 L 291.750 166.683 291.700 165.841 L 291.649 165.000 289.491 165.000 L 287.333 165.000 287.333 171.917 L 287.333 178.833 289.500 178.833 L 291.667 178.833 291.667 175.030 C 291.667 169.093,292.304 167.912,295.500 167.929 C 298.529 167.944,299.000 168.866,299.000 174.771 L 299.000 178.833 301.176 178.833 L 303.351 178.833 303.301 173.708 C 303.252 168.767,303.236 168.553,302.866 167.750 C 301.750 165.325,298.694 164.067,295.567 164.748 M136.667 165.054 C 136.667 165.089,137.538 166.910,138.603 169.101 C 139.669 171.291,141.164 174.377,141.927 175.958 L 143.313 178.833 145.415 178.833 L 147.516 178.833 149.402 174.958 C 150.440 172.827,151.974 169.715,152.812 168.042 L 154.335 165.000 151.929 165.000 C 149.642 165.000,149.517 165.017,149.413 165.345 C 149.353 165.534,148.871 166.603,148.341 167.720 C 146.896 170.769,146.441 171.813,145.795 173.557 L 145.558 174.197 144.869 172.474 C 144.490 171.526,143.591 169.475,142.870 167.917 L 141.560 165.083 139.114 165.037 C 137.768 165.012,136.667 165.020,136.667 165.054 M250.610 167.621 C 251.302 169.067,252.153 170.850,252.501 171.583 C 252.850 172.317,253.712 174.117,254.418 175.583 C 256.483 179.878,256.322 180.326,252.708 180.331 L 251.500 180.333 251.500 182.167 L 251.500 184.000 253.575 184.000 C 257.656 184.000,258.136 183.685,260.071 179.738 C 260.765 178.321,261.333 177.135,261.333 177.101 C 261.333 177.068,261.867 175.926,262.520 174.562 C 265.022 169.335,267.000 165.146,267.000 165.074 C 267.000 165.033,265.923 165.000,264.607 165.000 L 262.214 165.000 261.696 166.292 C 261.412 167.002,260.700 168.747,260.116 170.170 C 259.531 171.592,258.922 173.148,258.763 173.628 C 258.397 174.728,258.310 174.720,257.911 173.542 C 257.732 173.015,256.864 170.896,255.982 168.833 L 254.377 165.083 251.865 165.037 L 249.352 164.991 250.610 167.621 M88.978 168.833 L 89.954 170.917 87.621 170.963 C 84.705 171.021,84.873 171.281,86.088 168.583 C 86.377 167.942,86.792 166.979,87.010 166.444 L 87.406 165.472 87.704 166.111 C 87.868 166.462,88.442 167.688,88.978 168.833 M164.434 167.485 C 165.419 167.932,166.067 168.689,166.407 169.792 L 166.522 170.167 162.761 170.167 C 158.573 170.167,158.713 170.213,159.317 169.035 C 160.170 167.373,162.580 166.642,164.434 167.485 M242.530 167.424 C 243.572 167.779,245.041 169.530,244.725 170.041 C 244.621 170.209,237.376 170.203,237.271 170.034 C 237.151 169.840,237.734 168.646,238.171 168.189 C 239.093 167.227,240.979 166.896,242.530 167.424 M109.688 167.921 C 113.152 169.102,113.537 174.122,110.287 175.742 C 106.147 177.805,102.361 172.427,105.560 169.027 C 106.711 167.804,108.185 167.409,109.688 167.921 M128.913 167.853 C 131.361 168.532,132.626 171.485,131.497 173.885 C 129.913 177.257,124.612 176.830,123.644 173.254 C 122.738 169.906,125.630 166.941,128.913 167.853 M277.564 168.007 C 280.706 169.182,281.130 173.804,278.259 175.579 C 276.011 176.969,272.735 175.888,272.027 173.524 C 270.913 169.805,274.041 166.689,277.564 168.007 M315.738 168.010 C 317.746 168.761,318.920 171.150,318.259 173.139 C 316.706 177.814,310.274 176.815,310.302 171.903 C 310.319 168.948,313.040 167.000,315.738 168.010 M190.320 172.558 C 192.858 175.051,192.766 174.835,191.521 175.394 C 188.290 176.844,184.293 174.783,185.600 172.341 C 185.860 171.857,187.942 170.222,188.101 170.378 C 188.122 170.399,189.121 171.380,190.320 172.558 M224.561 171.063 C 225.401 171.414,225.833 172.072,225.833 173.000 C 225.833 174.911,225.136 175.167,219.922 175.167 L 215.833 175.167 215.833 173.000 L 215.833 170.833 219.922 170.833 C 223.020 170.833,224.144 170.889,224.561 171.063 " stroke="none" fill="#fbfbfb" fill-rule="evenodd"></path><path id="path1" d="M0.000 118.083 L 0.000 236.167 200.000 236.167 L 400.000 236.167 400.000 118.083 L 400.000 0.000 200.000 0.000 L 0.000 0.000 0.000 118.083 M252.167 88.827 L 252.167 134.654 251.806 135.619 C 251.312 136.940,249.795 138.460,248.417 139.015 L 247.417 139.417 197.667 139.417 L 147.917 139.417 147.875 93.632 L 147.833 47.847 148.178 46.923 C 148.823 45.201,150.009 44.022,151.802 43.321 C 152.553 43.027,154.505 43.015,202.375 43.008 L 252.167 43.000 252.167 88.827 M191.167 68.141 C 189.471 69.132,187.202 70.450,186.125 71.071 C 183.831 72.394,183.906 72.138,185.167 74.320 C 186.393 76.441,186.463 75.886,184.556 79.155 C 183.670 80.674,182.180 83.229,181.244 84.833 C 179.845 87.233,173.156 98.874,171.955 101.000 C 171.774 101.321,170.698 103.209,169.563 105.195 C 168.428 107.182,167.500 108.850,167.500 108.903 C 167.500 109.075,180.836 109.010,181.160 108.837 C 181.444 108.685,181.744 108.236,182.668 106.583 C 182.873 106.217,183.755 104.679,184.629 103.167 C 192.663 89.257,192.840 88.967,193.351 88.875 C 193.498 88.849,194.686 90.724,196.572 93.958 C 201.320 102.103,202.232 103.430,204.638 105.693 C 215.179 115.609,232.532 108.029,232.554 93.500 C 232.569 83.228,225.737 76.621,214.847 76.375 L 211.278 76.295 211.667 76.939 C 219.316 89.610,220.232 91.307,220.218 92.773 C 220.186 96.220,216.515 98.500,213.414 96.999 C 212.288 96.454,211.600 95.638,210.041 93.000 C 205.475 85.275,203.590 82.066,201.866 79.083 C 200.806 77.250,199.158 74.400,198.203 72.750 C 196.499 69.804,196.275 69.414,195.145 67.430 C 194.408 66.136,194.683 66.087,191.167 68.141 M191.889 159.755 C 195.795 160.894,196.371 165.029,192.983 167.612 C 191.985 168.373,191.925 168.197,193.829 170.088 C 195.569 171.816,195.539 171.806,195.851 170.752 L 196.073 170.000 198.472 170.000 L 200.870 170.000 200.757 170.605 C 200.594 171.472,199.924 172.917,199.249 173.857 C 198.929 174.303,198.667 174.697,198.667 174.734 C 198.667 174.770,199.623 175.743,200.792 176.896 L 202.917 178.993 199.825 178.997 L 196.734 179.000 196.100 178.351 L 195.466 177.701 194.691 178.175 C 192.666 179.412,188.438 179.925,185.830 179.249 C 179.467 177.601,178.614 171.405,184.300 168.140 L 185.183 167.633 184.763 167.108 C 181.106 162.543,185.589 157.918,191.889 159.755 M90.373 160.627 C 90.532 160.970,91.234 162.450,91.932 163.917 C 92.630 165.383,93.409 167.033,93.663 167.583 C 93.917 168.133,94.555 169.483,95.081 170.583 C 97.239 175.095,99.000 178.842,99.000 178.919 C 99.000 178.963,97.778 179.000,96.285 179.000 L 93.569 179.000 92.852 177.458 C 92.457 176.610,92.059 175.710,91.967 175.458 L 91.801 175.000 87.597 175.000 L 83.393 175.000 82.545 176.958 L 81.698 178.917 79.016 178.962 C 77.540 178.988,76.333 178.969,76.333 178.921 C 76.333 178.801,77.688 175.914,80.247 170.583 C 80.775 169.483,81.415 168.133,81.669 167.583 C 81.924 167.033,82.688 165.421,83.368 164.000 C 84.048 162.579,84.749 161.100,84.927 160.713 L 85.250 160.009 87.667 160.006 L 90.083 160.004 90.373 160.627 M104.833 163.000 C 104.833 165.884,104.901 166.271,105.315 165.772 C 106.422 164.438,110.626 164.115,112.834 165.195 C 119.989 168.694,117.472 179.515,109.507 179.498 C 108.042 179.495,106.013 178.819,105.125 178.038 C 104.854 177.800,104.833 177.824,104.833 178.391 L 104.833 179.000 102.500 179.000 L 100.167 179.000 100.167 169.500 L 100.167 160.000 102.500 160.000 L 104.833 160.000 104.833 163.000 M227.417 160.467 C 230.496 161.886,231.045 166.124,228.428 168.281 L 227.832 168.771 228.458 169.124 C 231.971 171.107,231.763 176.519,228.107 178.226 C 226.640 178.911,225.496 179.000,218.111 179.000 L 211.167 179.000 211.167 169.492 L 211.167 159.984 218.875 160.034 C 226.519 160.083,226.590 160.087,227.417 160.467 M322.626 169.458 L 322.583 178.917 320.292 178.963 L 318.000 179.009 318.000 178.425 L 318.000 177.841 317.208 178.343 C 310.527 182.582,302.680 174.567,306.919 167.833 C 309.067 164.423,314.937 163.347,317.625 165.872 L 318.000 166.225 318.000 163.112 L 318.000 160.000 320.335 160.000 L 322.669 160.000 322.626 169.458 M188.448 163.019 C 187.737 163.433,187.804 164.151,188.635 165.042 C 189.172 165.618,189.292 165.614,190.142 164.999 C 191.716 163.859,190.150 162.029,188.448 163.019 M216.000 165.667 L 216.000 167.500 219.042 167.499 C 223.968 167.497,224.833 167.213,224.833 165.593 C 224.833 164.032,224.254 163.843,219.458 163.837 L 216.000 163.833 216.000 165.667 M130.855 164.725 C 138.531 166.854,138.954 176.406,131.488 179.014 C 126.268 180.837,120.179 178.449,118.909 174.080 C 117.092 167.830,123.620 162.718,130.855 164.725 M165.166 164.583 C 168.870 165.362,170.878 167.713,171.252 171.708 L 171.372 173.000 165.107 173.000 L 158.842 173.000 158.945 173.542 C 159.484 176.377,164.189 177.430,165.724 175.059 L 166.083 174.504 168.625 174.502 C 170.023 174.501,171.167 174.540,171.167 174.589 C 171.167 174.638,170.984 175.037,170.762 175.477 C 167.975 180.976,157.425 180.943,154.900 175.427 C 151.953 168.990,157.627 162.997,165.166 164.583 M243.466 164.570 C 247.135 165.357,249.344 168.032,249.534 171.917 L 249.583 172.917 243.375 172.960 C 236.357 173.010,236.775 172.913,237.495 174.324 C 238.709 176.703,242.678 177.084,244.073 174.955 L 244.372 174.500 246.853 174.500 C 249.659 174.500,249.650 174.495,248.897 175.712 C 245.313 181.502,234.743 180.728,232.830 174.535 C 230.876 168.208,236.382 163.051,243.466 164.570 M278.524 164.588 C 283.662 165.669,286.371 170.238,284.559 174.765 C 281.852 181.527,269.381 181.083,267.215 174.149 C 265.326 168.099,271.281 163.065,278.524 164.588 M299.257 164.754 C 302.795 165.659,303.493 167.231,303.497 174.292 L 303.500 179.000 301.167 179.000 L 298.833 179.000 298.833 174.687 C 298.833 168.875,298.386 168.000,295.417 168.000 C 292.399 168.000,291.833 169.082,291.833 174.847 L 291.833 179.000 289.500 179.000 L 287.167 179.000 287.167 172.000 L 287.167 165.000 289.500 165.000 L 291.833 165.000 291.833 165.758 L 291.833 166.517 292.375 166.105 C 294.305 164.637,296.847 164.138,299.257 164.754 M142.004 165.792 C 142.975 167.845,144.817 172.003,145.087 172.750 C 145.484 173.847,145.624 173.981,145.767 173.399 C 145.898 172.869,146.640 171.106,147.547 169.167 C 147.869 168.479,148.438 167.260,148.812 166.458 L 149.491 165.000 151.912 165.000 C 153.244 165.000,154.333 165.040,154.333 165.089 C 154.333 165.138,152.798 168.291,150.922 172.094 L 147.511 179.010 145.398 178.963 C 143.731 178.927,143.255 178.864,143.142 178.667 C 142.945 178.323,138.581 169.331,137.980 168.031 C 137.713 167.453,137.269 166.534,136.995 165.990 L 136.495 165.000 139.063 165.000 L 141.630 165.000 142.004 165.792 M256.009 168.625 C 256.863 170.619,257.726 172.728,257.926 173.312 C 258.335 174.509,258.316 174.520,258.978 172.731 C 259.691 170.802,261.992 165.275,262.145 165.122 C 262.217 165.050,263.366 165.012,264.699 165.037 L 267.122 165.083 266.734 165.917 C 265.912 167.679,264.492 170.678,263.418 172.917 C 262.802 174.200,262.036 175.813,261.715 176.500 C 258.238 183.953,258.220 183.970,253.958 184.126 L 251.500 184.215 251.500 182.191 L 251.500 180.167 252.989 180.167 C 255.102 180.167,255.659 179.913,255.664 178.948 C 255.667 178.462,255.538 178.154,253.871 174.667 C 250.318 167.235,249.333 165.154,249.333 165.074 C 249.333 165.033,250.486 165.000,251.894 165.000 L 254.454 165.000 256.009 168.625 M86.306 168.311 L 85.195 170.917 87.454 170.963 C 88.696 170.989,89.740 170.982,89.774 170.948 C 89.807 170.915,89.361 169.881,88.781 168.652 C 88.202 167.423,87.658 166.257,87.572 166.061 C 87.441 165.760,87.245 166.108,86.306 168.311 M160.626 167.773 C 160.031 168.111,159.732 168.431,159.413 169.069 L 158.991 169.917 162.603 169.962 C 166.743 170.013,166.483 170.081,165.999 169.081 C 165.184 167.398,162.457 166.734,160.626 167.773 M239.028 167.691 C 238.327 168.038,237.650 168.854,237.422 169.625 L 237.311 170.000 240.989 170.000 C 243.012 170.000,244.667 169.960,244.667 169.910 C 244.667 167.996,241.182 166.625,239.028 167.691 M106.909 168.157 C 104.437 169.258,103.692 172.607,105.461 174.674 C 107.566 177.133,111.439 176.232,112.314 173.080 C 113.221 169.813,109.927 166.813,106.909 168.157 M126.190 168.062 C 124.332 168.734,123.312 170.682,123.693 172.828 C 124.418 176.907,130.318 177.308,131.592 173.364 C 132.710 169.908,129.579 166.835,126.190 168.062 M274.451 168.089 C 271.791 169.065,270.992 172.750,272.977 174.890 C 274.588 176.627,277.822 176.470,279.258 174.587 C 281.822 171.226,278.423 166.631,274.451 168.089 M313.023 168.062 C 310.467 168.987,309.567 172.357,311.273 174.621 C 312.729 176.554,315.928 176.549,317.406 174.612 C 319.903 171.338,316.797 166.696,313.023 168.062 M187.083 171.068 C 183.295 173.572,187.241 177.296,191.558 175.290 L 192.532 174.837 190.341 172.668 C 189.136 171.476,188.098 170.504,188.034 170.508 C 187.969 170.513,187.542 170.765,187.083 171.068 M216.000 172.978 L 216.000 175.167 219.676 175.167 C 224.791 175.167,225.667 174.858,225.667 173.055 C 225.667 171.142,225.233 170.971,220.125 170.871 L 216.000 170.790 216.000 172.978 M268.871 182.792 C 269.702 183.164,270.332 183.953,270.333 184.625 C 270.334 185.229,268.473 185.190,268.195 184.580 C 267.702 183.496,264.667 183.582,264.667 184.680 C 264.667 185.123,265.118 185.278,267.081 185.506 C 269.887 185.834,270.667 186.370,270.667 187.971 C 270.667 189.589,269.598 190.346,267.145 190.465 C 264.167 190.609,262.333 189.640,262.333 187.922 C 262.333 187.420,264.440 187.570,264.568 188.080 C 264.876 189.308,268.326 189.354,268.468 188.132 C 268.540 187.521,268.211 187.384,266.160 187.174 C 262.771 186.826,261.552 185.281,263.192 183.413 C 264.166 182.304,267.072 181.986,268.871 182.792 M281.500 186.417 L 281.500 190.333 280.583 190.333 L 279.667 190.333 279.667 186.417 L 279.667 182.500 280.583 182.500 L 281.500 182.500 281.500 186.417 M296.500 183.333 L 296.500 184.167 295.583 184.167 L 294.667 184.167 294.667 183.333 L 294.667 182.500 295.583 182.500 L 296.500 182.500 296.500 183.333 M292.667 183.740 C 292.667 184.475,292.671 184.480,293.292 184.532 C 294.273 184.613,294.267 185.888,293.285 185.969 L 292.654 186.021 292.702 187.385 L 292.750 188.750 293.292 188.802 C 293.816 188.853,293.833 188.879,293.833 189.613 L 293.833 190.371 292.666 190.305 C 290.959 190.209,290.801 190.005,290.702 187.769 C 290.629 186.140,290.599 186.014,290.270 185.967 C 289.729 185.890,289.749 184.607,290.292 184.530 C 290.616 184.484,290.667 184.377,290.667 183.738 L 290.667 183.000 291.667 183.000 L 292.667 183.000 292.667 183.740 M276.417 184.517 C 278.325 185.038,279.287 186.902,278.520 188.590 C 277.091 191.737,271.514 190.832,271.503 187.452 C 271.495 185.166,273.785 183.798,276.417 184.517 M303.173 184.851 C 304.402 185.537,304.968 186.741,304.675 188.044 C 303.876 191.602,297.746 191.241,297.539 187.623 C 297.386 184.942,300.549 183.386,303.173 184.851 M318.464 184.732 C 319.788 185.416,319.856 186.333,318.583 186.333 C 318.079 186.333,317.667 186.264,317.667 186.179 C 317.667 185.567,316.077 185.246,315.421 185.726 C 314.817 186.168,315.220 186.443,316.651 186.562 C 318.949 186.754,319.667 187.218,319.667 188.514 C 319.667 189.814,318.546 190.498,316.417 190.498 C 314.669 190.498,313.000 189.653,313.000 188.767 C 313.000 188.286,314.720 188.402,315.235 188.917 C 315.886 189.568,317.833 189.446,317.833 188.754 C 317.833 188.395,317.619 188.325,315.983 188.156 C 313.576 187.907,312.696 187.048,313.359 185.594 C 313.886 184.437,316.907 183.926,318.464 184.732 M284.500 186.072 C 284.500 188.280,284.833 188.983,285.886 188.995 C 287.072 189.008,287.500 188.212,287.500 185.997 L 287.500 184.483 288.375 184.533 L 289.250 184.583 289.296 187.458 L 289.341 190.333 288.421 190.333 C 287.611 190.333,287.500 190.293,287.500 190.000 C 287.500 189.588,287.470 189.588,286.796 189.999 C 286.064 190.446,284.443 190.458,283.782 190.023 C 282.881 189.429,282.756 189.076,282.691 186.958 C 282.616 184.495,282.614 184.500,283.661 184.500 L 284.500 184.500 284.500 186.072 M296.500 187.417 L 296.500 190.333 295.583 190.333 L 294.667 190.333 294.667 187.417 L 294.667 184.500 295.583 184.500 L 296.500 184.500 296.500 187.417 M307.500 184.837 L 307.500 185.173 308.160 184.837 C 310.669 183.557,312.167 184.862,312.167 188.328 L 312.167 190.333 311.250 190.333 L 310.333 190.333 310.333 188.518 C 310.333 186.269,310.141 185.917,308.917 185.917 C 307.692 185.917,307.500 186.269,307.500 188.518 L 307.500 190.333 306.583 190.333 L 305.667 190.333 305.667 187.417 L 305.667 184.500 306.583 184.500 C 307.392 184.500,307.500 184.540,307.500 184.837 M274.587 185.845 C 273.191 186.257,273.076 188.367,274.420 188.929 C 275.106 189.215,275.866 189.085,276.300 188.607 C 277.474 187.311,276.259 185.352,274.587 185.845 M300.549 185.851 C 299.168 186.251,299.079 188.368,300.420 188.929 C 301.933 189.561,303.281 187.960,302.487 186.475 C 302.343 186.207,301.334 185.617,301.130 185.682 C 301.104 185.690,300.843 185.766,300.549 185.851 M322.667 189.417 L 322.667 190.333 321.667 190.333 L 320.667 190.333 320.667 189.417 L 320.667 188.500 321.667 188.500 L 322.667 188.500 322.667 189.417 " stroke="none" fill="#040404" fill-rule="evenodd"></path><path id="path2" d="M264.917 182.555 C 263.369 182.952,262.667 183.701,262.667 184.955 C 262.667 186.298,263.451 186.781,266.139 187.093 C 268.192 187.332,268.808 187.627,268.603 188.272 C 268.219 189.482,265.241 189.411,264.538 188.175 C 264.271 187.705,264.182 187.669,263.309 187.668 L 262.368 187.667 262.491 188.212 C 262.864 189.866,264.612 190.679,267.307 190.453 C 269.597 190.261,270.583 189.480,270.583 187.861 C 270.583 186.403,269.677 185.811,267.083 185.574 C 264.869 185.372,264.275 185.065,264.670 184.327 C 265.184 183.367,268.333 183.665,268.333 184.673 C 268.333 184.761,268.785 184.833,269.337 184.833 L 270.340 184.833 270.237 184.375 C 269.910 182.911,267.175 181.976,264.917 182.555 M279.667 186.417 L 279.667 190.167 280.583 190.167 L 281.500 190.167 281.500 186.417 L 281.500 182.667 280.583 182.667 L 279.667 182.667 279.667 186.417 M294.667 183.333 L 294.667 184.000 295.583 184.000 L 296.500 184.000 296.500 183.333 L 296.500 182.667 295.583 182.667 L 294.667 182.667 294.667 183.333 M290.833 183.833 C 290.833 184.611,290.806 184.667,290.417 184.667 C 290.052 184.667,290.000 184.739,290.000 185.250 C 290.000 185.756,290.054 185.833,290.402 185.833 C 290.801 185.833,290.805 185.851,290.861 187.743 C 290.929 190.059,291.001 190.153,292.718 190.161 L 293.853 190.167 293.802 189.542 C 293.754 188.967,293.703 188.910,293.167 188.833 L 292.583 188.750 292.535 187.292 L 292.487 185.833 293.160 185.833 C 293.818 185.833,293.833 185.820,293.833 185.250 C 293.833 184.681,293.817 184.667,293.167 184.667 L 292.500 184.667 292.500 183.833 L 292.500 183.000 291.667 183.000 L 290.833 183.000 290.833 183.833 M273.975 184.557 C 269.635 185.771,271.514 191.246,275.963 190.353 C 277.747 189.994,278.669 188.979,278.664 187.382 C 278.657 185.267,276.367 183.887,273.975 184.557 M299.955 184.558 C 297.407 185.174,296.643 188.024,298.594 189.632 C 300.329 191.062,303.656 190.484,304.412 188.622 C 305.478 185.994,303.075 183.803,299.955 184.558 M314.922 184.568 C 313.901 184.854,313.333 185.463,313.333 186.270 C 313.333 187.512,313.961 187.919,316.161 188.103 C 317.722 188.233,318.199 188.504,317.747 189.003 C 317.160 189.651,315.374 189.533,314.993 188.820 C 314.856 188.565,314.638 188.500,313.919 188.500 L 313.017 188.500 313.192 189.000 C 313.801 190.747,318.559 190.992,319.423 189.321 C 320.221 187.778,319.333 186.882,316.796 186.672 C 315.207 186.541,314.804 186.349,315.104 185.870 C 315.396 185.407,317.251 185.373,317.534 185.826 C 317.726 186.133,319.500 186.373,319.500 186.091 C 319.500 184.892,316.879 184.020,314.922 184.568 M308.273 184.891 C 307.495 185.290,307.459 185.294,307.378 184.987 C 307.310 184.726,307.143 184.667,306.481 184.667 L 305.667 184.667 305.667 187.417 L 305.667 190.167 306.481 190.167 L 307.296 190.167 307.361 188.398 C 307.437 186.338,307.755 185.833,308.978 185.833 C 310.126 185.833,310.333 186.217,310.333 188.340 L 310.333 190.167 311.250 190.167 L 312.167 190.167 312.166 188.292 C 312.166 184.989,310.654 183.669,308.273 184.891 M282.833 186.811 C 282.833 190.052,284.249 191.191,286.722 189.939 C 287.451 189.570,287.500 189.565,287.500 189.856 C 287.500 190.118,287.631 190.167,288.333 190.167 L 289.167 190.167 289.167 187.417 L 289.167 184.667 288.348 184.667 L 287.529 184.667 287.473 186.515 C 287.408 188.650,287.197 189.000,285.974 189.000 C 284.777 189.000,284.500 188.516,284.500 186.424 L 284.500 184.667 283.667 184.667 L 282.833 184.667 282.833 186.811 M294.667 187.417 L 294.667 190.167 295.583 190.167 L 296.500 190.167 296.500 187.417 L 296.500 184.667 295.583 184.667 L 294.667 184.667 294.667 187.417 M275.976 185.904 C 276.789 186.325,277.060 187.412,276.582 188.337 C 276.078 189.310,274.853 189.477,273.975 188.693 C 272.447 187.327,274.147 184.958,275.976 185.904 M302.002 185.918 C 302.561 186.207,302.943 187.207,302.765 187.916 C 302.388 189.419,300.243 189.617,299.576 188.211 C 298.822 186.623,300.429 185.104,302.002 185.918 M320.667 189.333 L 320.667 190.167 321.583 190.167 L 322.500 190.167 322.500 189.333 L 322.500 188.500 321.583 188.500 L 320.667 188.500 320.667 189.333 " stroke="none" fill="#e1536b" fill-rule="evenodd"></path><path id="path3" d="M204.083 105.333 C 204.535 105.792,204.942 106.167,204.987 106.167 C 205.033 106.167,204.701 105.792,204.250 105.333 C 203.799 104.875,203.392 104.500,203.346 104.500 C 203.300 104.500,203.632 104.875,204.083 105.333 M172.542 139.458 C 186.085 139.482,208.248 139.482,221.792 139.458 C 235.335 139.435,224.254 139.416,197.167 139.416 C 170.079 139.416,158.998 139.435,172.542 139.458 M188.958 159.451 C 189.165 159.491,189.502 159.491,189.708 159.451 C 189.915 159.411,189.746 159.379,189.333 159.379 C 188.921 159.379,188.752 159.411,188.958 159.451 M104.699 163.042 C 104.681 164.760,104.723 166.167,104.792 166.167 C 104.860 166.167,104.897 165.248,104.873 164.125 C 104.791 160.286,104.732 159.916,104.699 163.042 M322.578 169.417 C 322.578 174.642,322.599 176.755,322.625 174.113 C 322.651 171.471,322.651 167.196,322.625 164.613 C 322.599 162.030,322.578 164.192,322.578 169.417 M268.906 166.875 L 268.417 167.417 268.958 166.927 C 269.463 166.471,269.577 166.333,269.448 166.333 C 269.419 166.333,269.175 166.577,268.906 166.875 M162.460 167.285 C 162.668 167.324,162.968 167.323,163.127 167.281 C 163.286 167.239,163.117 167.207,162.750 167.209 C 162.383 167.211,162.253 167.245,162.460 167.285 M240.627 167.285 C 240.834 167.324,241.134 167.323,241.294 167.281 C 241.453 167.239,241.283 167.207,240.917 167.209 C 240.550 167.211,240.420 167.245,240.627 167.285 M278.500 168.552 C 278.500 168.581,278.744 168.825,279.042 169.094 L 279.583 169.583 279.094 169.042 C 278.638 168.537,278.500 168.423,278.500 168.552 M193.333 169.750 C 193.644 170.071,193.936 170.333,193.982 170.333 C 194.028 170.333,193.811 170.071,193.500 169.750 C 193.189 169.429,192.897 169.167,192.851 169.167 C 192.805 169.167,193.022 169.429,193.333 169.750 M223.127 170.951 C 223.334 170.991,223.634 170.990,223.794 170.948 C 223.953 170.906,223.783 170.874,223.417 170.875 C 223.050 170.877,222.920 170.911,223.127 170.951 M136.720 172.000 C 136.720 172.596,136.750 172.840,136.787 172.542 C 136.824 172.244,136.824 171.756,136.787 171.458 C 136.750 171.160,136.720 171.404,136.720 172.000 M266.879 172.000 C 266.879 172.412,266.911 172.581,266.951 172.375 C 266.991 172.169,266.991 171.831,266.951 171.625 C 266.911 171.419,266.879 171.588,266.879 172.000 M298.905 175.167 C 298.905 177.321,298.929 178.202,298.958 177.125 C 298.987 176.048,298.987 174.285,298.958 173.208 C 298.929 172.131,298.905 173.012,298.905 175.167 M161.969 172.958 C 163.740 172.985,166.590 172.985,168.303 172.958 C 170.015 172.931,168.567 172.909,165.083 172.909 C 161.600 172.909,160.199 172.931,161.969 172.958 M240.208 172.958 C 241.927 172.985,244.740 172.985,246.458 172.958 C 248.177 172.931,246.771 172.909,243.333 172.909 C 239.896 172.909,238.490 172.931,240.208 172.958 M85.375 174.958 C 86.544 174.987,88.456 174.987,89.625 174.958 C 90.794 174.929,89.837 174.906,87.500 174.906 C 85.162 174.906,84.206 174.929,85.375 174.958 M199.000 175.219 C 199.000 175.248,199.244 175.491,199.542 175.760 L 200.083 176.250 199.594 175.708 C 199.138 175.203,199.000 175.090,199.000 175.219 M104.709 178.417 C 104.711 178.783,104.745 178.914,104.785 178.706 C 104.824 178.499,104.823 178.199,104.781 178.040 C 104.739 177.880,104.707 178.050,104.709 178.417 M312.208 179.448 C 312.369 179.490,312.631 179.490,312.792 179.448 C 312.952 179.406,312.821 179.372,312.500 179.372 C 312.179 179.372,312.048 179.406,312.208 179.448 M280.128 182.621 C 280.428 182.658,280.878 182.657,281.128 182.619 C 281.378 182.581,281.133 182.551,280.583 182.552 C 280.033 182.553,279.828 182.584,280.128 182.621 M295.128 182.621 C 295.428 182.658,295.878 182.657,296.128 182.619 C 296.378 182.581,296.133 182.551,295.583 182.552 C 295.033 182.553,294.828 182.584,295.128 182.621 M290.667 183.738 C 290.667 184.377,290.616 184.484,290.292 184.530 C 289.737 184.609,289.731 185.890,290.285 185.969 C 290.628 186.018,290.658 186.122,290.709 187.469 L 290.765 188.917 290.799 187.375 L 290.833 185.833 290.417 185.833 C 290.052 185.833,290.000 185.761,290.000 185.250 C 290.000 184.739,290.052 184.667,290.417 184.667 C 290.806 184.667,290.833 184.611,290.833 183.833 C 290.833 183.375,290.796 183.000,290.750 183.000 C 290.704 183.000,290.667 183.332,290.667 183.738 M292.530 183.792 L 292.500 184.667 293.167 184.667 C 293.817 184.667,293.833 184.681,293.833 185.250 C 293.833 185.819,293.817 185.833,293.167 185.833 L 292.500 185.833 292.500 187.240 C 292.500 188.014,292.556 188.682,292.625 188.725 C 292.694 188.768,292.726 188.177,292.696 187.412 L 292.643 186.022 293.280 185.969 C 294.259 185.888,294.278 184.613,293.300 184.532 C 292.695 184.482,292.683 184.467,292.622 183.699 L 292.560 182.917 292.530 183.792 M266.127 183.785 C 266.334 183.824,266.634 183.823,266.794 183.781 C 266.953 183.739,266.783 183.707,266.417 183.709 C 266.050 183.711,265.920 183.745,266.127 183.785 M295.128 184.121 C 295.428 184.158,295.878 184.157,296.128 184.119 C 296.378 184.081,296.133 184.051,295.583 184.052 C 295.033 184.053,294.828 184.084,295.128 184.121 M282.739 184.719 C 282.693 184.840,282.679 185.758,282.709 186.761 L 282.763 188.583 282.798 186.634 L 282.833 184.684 283.708 184.623 L 284.583 184.562 283.703 184.531 C 283.106 184.510,282.796 184.571,282.739 184.719 M288.292 184.618 L 289.167 184.684 289.167 187.417 L 289.167 190.149 288.292 190.210 L 287.417 190.272 288.379 190.303 L 289.341 190.333 289.296 187.458 L 289.250 184.583 288.333 184.567 L 287.417 184.552 288.292 184.618 M295.128 184.621 C 295.428 184.658,295.878 184.657,296.128 184.619 C 296.378 184.581,296.133 184.551,295.583 184.552 C 295.033 184.553,294.828 184.584,295.128 184.621 M306.458 184.623 C 307.064 184.665,307.333 184.755,307.333 184.916 C 307.333 185.233,307.617 185.383,307.764 185.144 C 307.840 185.022,307.813 184.993,307.692 185.067 C 307.571 185.143,307.500 185.060,307.500 184.843 C 307.500 184.533,307.408 184.503,306.542 184.531 L 305.583 184.562 306.458 184.623 M268.792 184.954 C 269.090 184.991,269.577 184.991,269.875 184.954 C 270.173 184.917,269.929 184.887,269.333 184.887 C 268.737 184.887,268.494 184.917,268.792 184.954 M315.200 185.700 C 314.957 185.943,314.941 186.277,315.165 186.415 C 315.262 186.476,315.285 186.402,315.221 186.235 C 315.153 186.057,315.227 185.868,315.421 185.726 C 315.591 185.602,315.656 185.500,315.565 185.500 C 315.474 185.500,315.310 185.590,315.200 185.700 M313.205 186.333 C 313.205 186.654,313.240 186.785,313.282 186.625 C 313.323 186.465,313.323 186.202,313.282 186.042 C 313.240 185.881,313.205 186.012,313.205 186.333 M318.128 186.287 C 318.428 186.325,318.878 186.324,319.128 186.286 C 319.378 186.248,319.133 186.217,318.583 186.218 C 318.033 186.219,317.828 186.250,318.128 186.287 M315.958 186.618 C 316.165 186.657,316.502 186.657,316.708 186.618 C 316.915 186.578,316.746 186.545,316.333 186.545 C 315.921 186.545,315.752 186.578,315.958 186.618 M278.709 187.417 C 278.711 187.783,278.745 187.914,278.785 187.706 C 278.824 187.499,278.823 187.199,278.781 187.040 C 278.739 186.880,278.707 187.050,278.709 187.417 M265.375 187.115 C 265.535 187.157,265.798 187.157,265.958 187.115 C 266.119 187.073,265.987 187.039,265.667 187.039 C 265.346 187.039,265.215 187.073,265.375 187.115 M302.705 187.500 C 302.705 187.821,302.740 187.952,302.782 187.792 C 302.823 187.631,302.823 187.369,302.782 187.208 C 302.740 187.048,302.705 187.179,302.705 187.500 M307.333 188.658 L 307.333 190.149 306.458 190.210 L 305.583 190.272 306.542 190.303 L 307.500 190.333 307.500 188.750 C 307.500 187.879,307.462 187.167,307.417 187.167 C 307.371 187.167,307.333 187.838,307.333 188.658 M322.500 189.325 L 322.500 190.150 321.542 190.210 L 320.583 190.270 321.625 190.302 L 322.667 190.333 322.667 189.417 C 322.667 188.912,322.629 188.500,322.583 188.500 C 322.537 188.500,322.500 188.871,322.500 189.325 M266.211 189.120 C 266.464 189.158,266.839 189.157,267.044 189.117 C 267.249 189.078,267.042 189.046,266.583 189.048 C 266.125 189.049,265.957 189.081,266.211 189.120 M280.128 190.287 C 280.428 190.325,280.878 190.324,281.128 190.286 C 281.378 190.248,281.133 190.217,280.583 190.218 C 280.033 190.219,279.828 190.250,280.128 190.287 M292.292 190.287 C 292.590 190.324,293.077 190.324,293.375 190.287 C 293.673 190.250,293.429 190.220,292.833 190.220 C 292.237 190.220,291.994 190.250,292.292 190.287 M295.128 190.287 C 295.428 190.325,295.878 190.324,296.128 190.286 C 296.378 190.248,296.133 190.217,295.583 190.218 C 295.033 190.219,294.828 190.250,295.128 190.287 M310.795 190.287 C 311.094 190.325,311.544 190.324,311.795 190.286 C 312.045 190.248,311.800 190.217,311.250 190.218 C 310.700 190.219,310.495 190.250,310.795 190.287 " stroke="none" fill="#564448" fill-rule="evenodd"></path><path id="path4" d="M147.915 93.750 C 147.915 118.867,147.935 129.117,147.958 116.528 C 147.982 103.940,147.982 83.390,147.958 70.862 C 147.935 58.334,147.915 68.633,147.915 93.750 M214.295 76.287 C 214.594 76.325,215.044 76.324,215.295 76.286 C 215.545 76.248,215.300 76.217,214.750 76.218 C 214.200 76.219,213.995 76.250,214.295 76.287 M232.714 93.417 C 232.716 93.875,232.748 94.043,232.786 93.789 C 232.825 93.536,232.824 93.161,232.784 92.956 C 232.744 92.751,232.713 92.958,232.714 93.417 M215.208 97.448 C 215.369 97.490,215.631 97.490,215.792 97.448 C 215.952 97.406,215.821 97.372,215.500 97.372 C 215.179 97.372,215.048 97.406,215.208 97.448 M171.292 109.125 C 173.056 109.152,175.944 109.152,177.708 109.125 C 179.473 109.098,178.029 109.076,174.500 109.076 C 170.971 109.076,169.527 109.098,171.292 109.125 M215.125 110.284 C 215.331 110.324,215.669 110.324,215.875 110.284 C 216.081 110.245,215.912 110.212,215.500 110.212 C 215.088 110.212,214.919 110.245,215.125 110.284 M100.248 169.500 L 100.250 178.917 102.417 178.924 L 104.583 178.931 102.460 178.877 L 100.336 178.824 100.291 169.454 L 100.246 160.083 100.248 169.500 M318.069 163.083 C 318.070 164.825,318.094 165.515,318.124 164.616 C 318.154 163.718,318.154 162.293,318.124 161.450 C 318.094 160.607,318.069 161.342,318.069 163.083 M184.406 161.208 L 183.917 161.750 184.458 161.260 C 184.963 160.804,185.077 160.667,184.948 160.667 C 184.919 160.667,184.675 160.910,184.406 161.208 M215.896 165.667 C 215.896 166.721,215.923 167.152,215.956 166.625 C 215.990 166.098,215.990 165.235,215.956 164.708 C 215.923 164.181,215.896 164.612,215.896 165.667 M127.042 164.455 C 127.385 164.491,127.948 164.491,128.292 164.455 C 128.635 164.419,128.354 164.389,127.667 164.389 C 126.979 164.389,126.698 164.419,127.042 164.455 M162.208 164.455 C 162.552 164.491,163.115 164.491,163.458 164.455 C 163.802 164.419,163.521 164.389,162.833 164.389 C 162.146 164.389,161.865 164.419,162.208 164.455 M240.375 164.455 C 240.719 164.491,241.281 164.491,241.625 164.455 C 241.969 164.419,241.688 164.389,241.000 164.389 C 240.313 164.389,240.031 164.419,240.375 164.455 M275.375 164.455 C 275.719 164.491,276.281 164.491,276.625 164.455 C 276.969 164.419,276.688 164.389,276.000 164.389 C 275.313 164.389,275.031 164.419,275.375 164.455 M188.500 165.083 C 188.811 165.404,189.103 165.667,189.149 165.667 C 189.195 165.667,188.978 165.404,188.667 165.083 C 188.356 164.762,188.064 164.500,188.018 164.500 C 187.972 164.500,188.189 164.762,188.500 165.083 M287.247 171.917 L 287.250 178.917 289.500 178.917 L 291.750 178.917 291.755 174.958 L 291.759 171.000 291.710 174.917 L 291.661 178.833 289.499 178.833 L 287.337 178.833 287.291 171.875 L 287.244 164.917 287.247 171.917 M291.717 165.833 C 291.717 166.337,291.748 166.544,291.786 166.292 C 291.824 166.040,291.824 165.627,291.786 165.375 C 291.748 165.123,291.717 165.329,291.717 165.833 M224.872 165.667 C 224.872 165.987,224.906 166.119,224.948 165.958 C 224.990 165.798,224.990 165.535,224.948 165.375 C 224.906 165.215,224.872 165.346,224.872 165.667 M295.044 167.953 C 295.297 167.991,295.672 167.990,295.877 167.951 C 296.082 167.911,295.875 167.880,295.417 167.881 C 294.958 167.882,294.791 167.915,295.044 167.953 M162.667 170.000 L 158.917 170.093 162.708 170.130 C 165.150 170.154,166.500 170.107,166.500 170.000 C 166.500 169.908,166.481 169.850,166.458 169.870 C 166.435 169.890,164.729 169.949,162.667 170.000 M237.276 170.042 C 237.318 170.110,238.994 170.167,241.000 170.167 C 243.006 170.167,244.682 170.110,244.724 170.042 C 244.767 169.973,243.091 169.917,241.000 169.917 C 238.909 169.917,237.233 169.973,237.276 170.042 M303.372 174.287 L 303.333 178.824 301.125 178.875 L 298.917 178.927 301.130 178.964 C 303.802 179.008,303.517 179.597,303.458 174.164 L 303.411 169.750 303.372 174.287 M196.109 170.125 C 196.066 170.194,196.755 170.230,197.640 170.206 C 200.493 170.128,200.807 170.061,198.468 170.030 C 197.213 170.014,196.151 170.056,196.109 170.125 M194.583 171.000 C 194.941 171.367,195.272 171.667,195.318 171.667 C 195.363 171.667,195.108 171.367,194.750 171.000 C 194.392 170.633,194.062 170.333,194.016 170.333 C 193.970 170.333,194.225 170.633,194.583 171.000 M215.899 173.000 C 215.899 174.237,215.925 174.744,215.957 174.125 C 215.989 173.506,215.989 172.494,215.957 171.875 C 215.925 171.256,215.899 171.762,215.899 173.000 M232.557 172.083 C 232.558 172.817,232.587 173.096,232.622 172.704 C 232.657 172.312,232.657 171.712,232.621 171.371 C 232.585 171.029,232.557 171.350,232.557 172.083 M154.212 172.000 C 154.212 172.412,154.245 172.581,154.284 172.375 C 154.324 172.169,154.324 171.831,154.284 171.625 C 154.245 171.419,154.212 171.588,154.212 172.000 M318.375 172.083 C 318.377 172.450,318.411 172.580,318.451 172.373 C 318.491 172.166,318.490 171.866,318.448 171.706 C 318.406 171.547,318.374 171.717,318.375 172.083 M230.883 173.500 C 230.883 174.004,230.915 174.210,230.953 173.958 C 230.991 173.706,230.991 173.294,230.953 173.042 C 230.915 172.790,230.883 172.996,230.883 173.500 M272.500 174.552 C 272.500 174.581,272.744 174.825,273.042 175.094 L 273.583 175.583 273.094 175.042 C 272.638 174.537,272.500 174.423,272.500 174.552 M282.991 176.958 L 282.417 177.583 283.042 177.009 C 283.385 176.693,283.667 176.412,283.667 176.384 C 283.667 176.257,283.526 176.377,282.991 176.958 M247.740 177.042 L 247.250 177.583 247.792 177.094 C 248.297 176.638,248.410 176.500,248.281 176.500 C 248.252 176.500,248.009 176.744,247.740 177.042 M201.500 177.750 C 201.998 178.254,202.443 178.667,202.489 178.667 C 202.534 178.667,202.165 178.254,201.667 177.750 C 201.169 177.246,200.724 176.833,200.678 176.833 C 200.632 176.833,201.002 177.246,201.500 177.750 M196.075 178.292 L 196.734 179.000 199.742 178.962 L 202.750 178.925 199.753 178.875 L 196.756 178.825 196.086 178.204 L 195.417 177.583 196.075 178.292 M317.987 178.292 L 318.089 178.917 320.336 178.925 L 322.583 178.932 320.375 178.878 L 318.167 178.824 318.167 178.245 C 318.167 177.927,318.103 177.667,318.026 177.667 C 317.949 177.667,317.931 177.948,317.987 178.292 M76.333 178.875 C 76.333 178.944,77.552 178.986,79.042 178.968 C 81.766 178.937,81.443 178.875,78.125 178.794 C 77.139 178.770,76.333 178.806,76.333 178.875 M93.609 178.875 C 93.652 178.944,94.882 179.000,96.343 179.000 C 97.804 179.000,99.000 178.944,99.000 178.875 C 99.000 178.806,97.770 178.750,96.266 178.750 C 94.762 178.750,93.567 178.806,93.609 178.875 M143.276 178.875 C 143.318 178.944,144.282 179.000,145.417 179.000 C 146.552 179.000,147.515 178.944,147.558 178.875 C 147.600 178.806,146.637 178.750,145.417 178.750 C 144.197 178.750,143.233 178.806,143.276 178.875 M214.625 178.958 C 216.573 178.985,219.760 178.985,221.708 178.958 C 223.656 178.931,222.063 178.910,218.167 178.910 C 214.271 178.910,212.677 178.931,214.625 178.958 M252.213 180.289 C 252.652 180.324,253.327 180.323,253.713 180.288 C 254.100 180.254,253.742 180.225,252.917 180.226 C 252.092 180.226,251.775 180.255,252.213 180.289 M252.375 184.123 C 252.810 184.157,253.523 184.157,253.958 184.123 C 254.394 184.088,254.037 184.060,253.167 184.060 C 252.296 184.060,251.940 184.088,252.375 184.123 " stroke="none" fill="#7c7c7c" fill-rule="evenodd"></path></g></svg>