<svg xmlns="http://www.w3.org/2000/svg" viewBox="0 0 1080 1080"><defs><style>.a{fill:#fff;}</style></defs><path class="a" d="M148.48,132h833a0,0,0,0,1,0,0V898a50,50,0,0,1-50,50h-833a0,0,0,0,1,0,0V182A50,50,0,0,1,148.48,132Z"/><path d="M815.72,539.7c-7.82-58-40.83-97.09-95.45-117.87-27.3-10.39-55.84-7.53-84.88-7.62,1.09,1.92,1.82,3.26,2.59,4.56q33.54,56.49,67.07,113c8.38,14.15,8.26,28.58-.29,42.49-16,26-53.37,25-69.28-1.8q-29.61-49.83-59.06-99.77c-.92-1.55-1.82-3.1-2.73-4.65L493,328.31l-89.14,51.47L423.08,413c-19.67,34.17-44.1,75.81-63.65,109.85q-47.35,82.44-94.48,165c-.62,1.07-1.12,2.2-1.95,3.86l4.64,0c35.71-.18,71.43-.49,107.14-.38,5.13,0,7.6-1.7,10.07-6Q429,608.46,473.6,531.77a37,37,0,0,1,10.89-12.19c.63,1,1.15,1.86,1.54,2.52,13.6,23.24,27.14,46.2,40.72,69.45,11.43,19.58,22.71,39.26,37.43,56.7,35.47,42,80.34,59.65,134.64,50.46C773.93,686,826,615.68,815.72,539.7Z"/></svg>